<?xml version="1.0" encoding="UTF-8"?>
<svg enable-background="new 0 0 105.1 48" version="1.1" viewBox="0 0 105.1 48" xml:space="preserve" xmlns="http://www.w3.org/2000/svg">
<style type="text/css">
	.st0{fill:url(#b);}
	.st1{fill:#378CFF;}
	.st2{fill:url(#a);}
</style>
				<linearGradient id="b" x1="8.45" x2="8.45" y1="29.9" y2="50" gradientTransform="matrix(1 0 0 -1 0 50)" gradientUnits="userSpaceOnUse">
				<stop stop-color="#378CFF" offset="0"/>
				<stop stop-color="#37C8FF" offset="1"/>
			</linearGradient>
			<path class="st0" d="M10.4,20.1H0C1.7,11.8,5.5,4.7,10.6,0l6.3,9.1C14,11.7,11.8,15.6,10.4,20.1z"/>
			<path class="st1" d="M15,29.6c0.9-2.9,1.3-6.1,1.3-9.5h-5.9c-0.9,2.9-1.3,6.1-1.3,9.5H15z"/>
					<linearGradient id="a" x1="18.25" x2="18.25" y1="2" y2="29.881" gradientTransform="matrix(1 0 0 -1 0 50)" gradientUnits="userSpaceOnUse">
					<stop stop-color="#9137FF" offset="0"/>
					<stop stop-color="#646EFF" offset="1"/>
				</linearGradient>
				<path class="st2" d="m26.3 20.1h-10c0 3.4-0.5 6.6-1.3 9.5-1.1 3.6-2.7 6.8-4.8 9.2l6.3 9.1c4.3-4.7 7.4-11.1 8.9-18.4 0.5-2.9 0.9-6.1 0.9-9.4z"/>
		<path d="m36.6 31v-3.1c1.2 0.8 2.5 1.2 4 1.2 1.2 0 1.9-0.5 1.9-1.5 0-0.8-0.7-1.4-2.1-1.9l-0.4-0.1c-2.3-0.7-3.5-2.2-3.5-4.4 0-2.5 1.8-4.2 4.7-4.2 1.3 0 2.5 0.2 3.9 0.9v3.1c-1.3-0.8-2.4-1.2-3.7-1.2-1.2 0-1.8 0.4-1.8 1.3 0 0.8 0.6 1.3 1.9 1.7l0.4 0.1c2.5 0.8 3.7 2.2 3.7 4.2 0 2.8-1.9 4.7-4.8 4.7-1.6 0.1-2.9-0.2-4.2-0.8z"/>
		<path d="m47.7 29.1v-5h-1.3v-2.6h1.3v-2.7h2.9v2.7h1.8v2.6h-1.8v4.1c0 0.6 0.4 1 0.9 1 0.3 0 0.6-0.1 0.9-0.2v2.5c-0.6 0.3-1.5 0.4-2.1 0.4-1.6-0.1-2.6-1-2.6-2.8z"/>
		<path d="m53.4 26.5c0-3.2 1.8-5.3 4.8-5.3 2.8 0 4.5 1.8 4.5 5.6v0.7h-6.3c0.1 1.1 1.1 1.8 2.6 1.8 1 0 2.2-0.3 3.4-1v2.7c-1.3 0.5-2.6 0.8-3.8 0.8-3.2 0-5.2-2-5.2-5.3zm3.1-1.1h3.4c0-1.1-0.6-1.8-1.6-1.8-1.1 0-1.8 0.7-1.8 1.8z"/>
		<path d="M64.4,16.1h2.9v15.5h-2.9V16.1z"/>
		<path d="M69.2,16.1h2.9v15.5h-2.9V16.1z"/>
		<path d="m73.7 28.9c0-2 1.3-3.1 3.9-3.5l1.9-0.3v-0.2c0-0.7-0.7-1.1-1.9-1.1-1.1 0-2.4 0.4-3.4 0.9v-2.8c1.2-0.4 2.7-0.8 3.8-0.8 2.9 0 4.4 1.3 4.4 3.6v6.9h-2.7l-0.2-1.3c-0.5 1-1.6 1.6-2.7 1.6-1.9-0.1-3.1-1.2-3.1-3zm5.7-0.5v-1.4l-1.5 0.3c-0.8 0.2-1.4 0.6-1.4 1.3 0 0.6 0.5 1 1.2 1 0.8-0.1 1.5-0.6 1.7-1.2z"/>
		<path d="M89,17.3h3v14.3h-3V17.3z"/>
		<path d="m97.7 20.2h-4.3v-2.9h11.7v2.9h-4.3v11.4h-3l-0.1-11.4z"/>
</svg>
