<svg xmlns="http://www.w3.org/2000/svg" viewBox="0 0 160 160">
  <path d="M80 14.7c.3 0 1.2.1 1.7 1l73.1 126.6c.5.9.2 1.7 0 2-.2.3-.7 1-1.7 1H6.9c-1 0-1.6-.7-1.7-1-.2-.3-.5-1.1 0-2L78.3 15.7c.5-.9 1.4-1 1.7-1m0-2c-1.3 0-2.7.7-3.5 2l-73 126.6c-1.5 2.7.4 6 3.5 6h146.1c3.1 0 5-3.3 3.5-6L83.5 14.7c-.8-1.3-2.2-2-3.5-2z"/>
  <path d="M80 14.7c.3 0 1.2.1 1.7 1l73.1 126.6c.5.9.2 1.7 0 2-.2.3-.7 1-1.7 1H6.9c-1 0-1.6-.7-1.7-1-.2-.3-.5-1.1 0-2L78.3 15.7c.5-.9 1.4-1 1.7-1m0-2c-1.3 0-2.7.7-3.5 2l-73 126.6c-1.5 2.7.4 6 3.5 6h146.1c3.1 0 5-3.3 3.5-6L83.5 14.7c-.8-1.3-2.2-2-3.5-2z"/>
  <path d="M80 36.7l55.8 96.6H24.2L80 36.7m0-16L10.4 141.3h139.2L80 20.7z"/>
  <circle cx="80" cy="118.6" r="6.3"/>
  <path d="M75.1 66.8h9.8c1.1 0 1.9.9 1.9 1.9l-.8 37.7c0 1-.9 1.8-1.9 1.8h-8.2c-1 0-1.9-.8-1.9-1.8l-.8-37.7c0-1 .9-1.9 1.9-1.9z"/>
</svg>